<svg width="503" height="86" viewBox="0 0 503 86" fill="none" xmlns="http://www.w3.org/2000/svg">
<g clip-path="url(#clip0_289_7)">
<path d="M50.9744 21.6797C50.5734 24.7371 50.3729 27.6693 50.3729 30.4761C50.3729 32.481 50.4982 34.7365 50.7488 37.2426V37.4682C50.7488 38.0195 50.6486 38.4957 50.4481 38.8967C50.2476 39.2475 49.9719 39.4229 49.6211 39.4229C49.2201 39.4229 48.8692 39.2976 48.5685 39.047C48.2678 38.7463 48.0924 38.3453 48.0422 37.8441C47.942 37.2426 47.8417 36.3404 47.7415 35.1375C47.541 34.2854 47.2653 33.308 46.9145 32.2053C45.2103 29.0978 43.6315 26.9926 42.1779 25.8899C40.8747 25.0378 39.4212 24.4865 37.8173 24.2359C36.8148 24.0855 35.7623 24.0103 34.6596 24.0103V69.1956L37.8173 69.346C38.3185 69.3961 38.7195 69.5465 39.0202 69.7971C39.3711 69.9976 39.5465 70.2231 39.5465 70.4737C39.5465 70.7243 39.346 70.9248 38.945 71.0752C38.5441 71.2757 38.0428 71.3509 37.4414 71.3007C34.2837 71.1002 30.725 71 26.7653 71C22.7555 71 19.1467 71.1002 15.9389 71.3007H15.6382C15.1369 71.3007 14.7109 71.2256 14.36 71.0752C14.0092 70.9248 13.8338 70.7243 13.8338 70.4737C13.8338 70.2231 13.9841 69.9976 14.2849 69.7971C14.6357 69.5465 15.0618 69.3961 15.563 69.346L18.7207 69.1204V24.0103H18.4951C17.192 24.0103 16.0642 24.0855 15.1119 24.2359C13.508 24.4865 12.0544 25.0378 10.7512 25.8899C9.29769 26.9926 7.71884 29.0978 6.01468 32.2053C5.66382 33.308 5.38815 34.2854 5.18766 35.1375C5.08741 36.3404 4.98717 37.2426 4.88693 37.8441C4.8368 38.3453 4.66137 38.7463 4.36064 39.047C4.05991 39.2976 3.70905 39.4229 3.30807 39.4229C2.95722 39.4229 2.65648 39.2225 2.40587 38.8215C2.20538 38.3704 2.1302 37.8441 2.18032 37.2426C2.43093 34.7365 2.55624 32.481 2.55624 30.4761C2.55624 28.4712 2.43093 26.2909 2.18032 23.9352C2.08008 22.4315 2.08008 21.6797 2.18032 21.6797V21.6045C2.48105 21.6045 2.7066 21.6295 2.85697 21.6797V21.6045C10.225 21.9052 18.2946 22.0556 27.066 22.0556C33.8326 22.0556 40.8998 21.9303 48.2678 21.6797H48.7189L50.6737 21.6045H50.7488V21.6797H50.9744ZM55.0419 60.9254C55.0419 57.5672 56.2449 54.9358 58.6507 53.0312C61.1067 51.0764 64.3897 50.099 68.4998 50.099C71.1562 50.099 73.5872 50.6503 75.7926 51.753V38.4456C75.7926 36.8918 75.4918 35.6888 74.8904 34.8368C74.339 33.9847 73.1361 33.5586 71.2816 33.5586C69.9283 33.5586 68.7754 33.8092 67.8231 34.3105C66.9209 34.7616 66.2944 35.3129 65.9435 35.9645C67.1465 36.7163 68.0737 37.5684 68.7253 38.5207C69.427 39.4229 69.7779 40.3502 69.7779 41.3025C69.7779 42.9566 69.1764 44.36 67.9735 45.5128C66.7705 46.6656 65.2669 47.242 63.4625 47.242C61.7583 47.242 60.38 46.6656 59.3274 45.5128C58.2748 44.36 57.7485 42.9566 57.7485 41.3025C57.7485 38.5458 59.152 36.3404 61.9588 34.6864C64.8158 33.0324 68.3745 32.2053 72.6349 32.2053C78.6997 32.2053 83.1355 33.4584 85.9423 35.9645C88.7993 38.4706 90.2278 41.8038 90.2278 45.9639V63.5568C90.2278 66.0128 91.155 67.2408 93.0096 67.2408C94.1624 67.2408 95.0145 66.7897 95.5658 65.8875C96.0169 65.2861 96.3427 64.9853 96.5432 64.9853C96.6936 64.9853 96.6936 65.3362 96.5432 66.0379C96.3928 66.6895 96.0921 67.316 95.641 67.9175C94.8892 69.0202 93.8115 69.9725 92.4081 70.7744C91.0047 71.5263 89.2253 71.9022 87.0701 71.9022C84.2131 71.9022 81.9576 71.5513 80.3036 70.8496C78.6997 70.1479 77.5218 69.0703 76.7699 67.6167C76.0682 68.7696 74.9405 69.772 73.3867 70.6241C71.883 71.4762 69.8531 71.9022 67.2968 71.9022C63.3372 71.9022 60.3048 70.9749 58.1996 69.1204C56.0945 67.2659 55.0419 64.5342 55.0419 60.9254ZM68.6501 60.3991C68.6501 62.7048 69.1012 64.5092 70.0034 65.8123C70.9558 67.0654 72.2589 67.6919 73.913 67.6919C74.9154 67.6919 75.7424 67.3661 76.394 66.7145C75.9931 65.261 75.7926 63.6821 75.7926 61.978V52.8808H75.3415C73.1361 52.8808 71.457 53.5825 70.3042 54.9859C69.2015 56.3392 68.6501 58.1436 68.6501 60.3991ZM132.639 34.4608C132.639 34.7616 132.514 35.0372 132.263 35.2879C132.012 35.4883 131.687 35.6137 131.286 35.6638C130.784 35.764 130.333 35.8141 129.932 35.8141L122.564 58.1436L118.279 71.3007C117.176 74.3582 116.023 76.739 114.82 78.4432C113.617 80.1473 112.314 81.3252 110.911 81.9768C109.507 82.6284 107.828 82.9542 105.874 82.9542C104.32 82.9542 102.992 82.4279 101.889 81.3753C100.786 80.3729 100.235 79.1198 100.235 77.6161C100.235 76.1626 100.736 74.9346 101.738 73.9322C102.741 72.9297 103.994 72.4285 105.498 72.4285C106.801 72.4285 107.929 72.8044 108.881 73.5562C109.833 74.3081 110.435 75.3105 110.685 76.5636C110.886 77.0648 111.387 77.3154 112.189 77.3154C113.141 77.3154 113.918 76.9144 114.52 76.1125C115.171 75.3105 115.497 74.2078 115.497 72.8044C115.497 72.0526 115.422 71.5513 115.272 71.3007H113.467C113.116 71.3007 112.765 71.2005 112.415 71C112.114 70.7995 111.913 70.5489 111.813 70.2482L98.1297 35.5886L97.3027 35.5134C96.8014 35.4633 96.4005 35.338 96.0997 35.1375C95.7489 34.8869 95.5734 34.6363 95.5734 34.3857C95.5734 34.135 95.7739 33.9346 96.1749 33.7842C96.5759 33.6338 97.0771 33.5837 97.6786 33.6338C101.488 33.8343 104.32 33.9346 106.174 33.9346C108.029 33.9346 110.861 33.8343 114.67 33.6338H114.971C115.472 33.6338 115.898 33.709 116.249 33.8594C116.6 34.0097 116.775 34.2102 116.775 34.4608C116.775 34.7114 116.625 34.9621 116.324 35.2127C116.023 35.4132 115.622 35.5385 115.121 35.5886L113.392 35.739L121.361 55.2115L127.677 35.8141C127.326 35.8141 126.85 35.764 126.248 35.6638C125.797 35.6137 125.421 35.4883 125.121 35.2879C124.87 35.0372 124.745 34.7616 124.745 34.4608C124.745 34.0097 125.346 33.7842 126.549 33.7842H130.383H130.834C132.037 33.7842 132.639 34.0097 132.639 34.4608ZM153.369 69.346C153.82 69.3961 154.171 69.5465 154.422 69.7971C154.722 69.9976 154.873 70.2231 154.873 70.4737C154.873 70.7243 154.672 70.9248 154.271 71.0752C153.87 71.2757 153.369 71.3509 152.768 71.3007C149.159 71.1002 146.427 71 144.573 71C142.818 71 140.087 71.1002 136.378 71.3007H136.077C135.576 71.3007 135.15 71.2256 134.799 71.0752C134.448 70.9248 134.272 70.7243 134.272 70.4737C134.272 70.2231 134.398 69.9976 134.648 69.7971C134.949 69.5465 135.325 69.3961 135.776 69.346L137.355 69.2708V23.7848C136.703 23.7848 136.227 23.7597 135.926 23.7096C135.425 23.6595 135.024 23.5342 134.723 23.3337C134.423 23.0831 134.272 22.8325 134.272 22.5819C134.272 22.3312 134.473 22.1308 134.874 21.9804C135.275 21.7799 135.776 21.7047 136.378 21.7548C136.829 21.805 137.48 21.83 138.332 21.83C140.488 21.83 142.517 21.5042 144.422 20.8526C146.327 20.201 148.181 19.0733 149.986 17.4694C150.286 17.1686 150.637 17.0183 151.038 17.0183C151.239 17.0183 151.414 17.2188 151.565 17.6197C151.715 17.9706 151.79 18.3966 151.79 18.8979V69.2708L153.369 69.346ZM179.747 71.9022C175.737 71.9022 172.228 71.1002 169.221 69.4963C166.214 67.8924 163.883 65.6119 162.229 62.6546C160.625 59.6974 159.823 56.2139 159.823 52.2041C159.823 48.1944 160.625 44.6858 162.229 41.6785C163.883 38.621 166.214 36.2903 169.221 34.6864C172.228 33.0324 175.737 32.2053 179.747 32.2053C183.756 32.2053 187.24 33.0324 190.197 34.6864C193.204 36.2903 195.51 38.621 197.114 41.6785C198.718 44.6858 199.52 48.1944 199.52 52.2041C199.52 56.2139 198.718 59.6974 197.114 62.6546C195.51 65.6119 193.204 67.8924 190.197 69.4963C187.24 71.1002 183.756 71.9022 179.747 71.9022ZM179.747 70.2482C181.1 70.2482 182.102 69.772 182.754 68.8197C183.456 67.8172 183.932 66.063 184.182 63.5568C184.483 61.0507 184.634 57.2665 184.634 52.2041C184.634 47.0415 184.483 43.1821 184.182 40.6259C183.932 38.0195 183.456 36.2402 182.754 35.2879C182.102 34.2854 181.1 33.7842 179.747 33.7842C178.393 33.7842 177.366 34.2854 176.664 35.2879C175.962 36.2402 175.461 38.0195 175.16 40.6259C174.86 43.2322 174.709 47.0917 174.709 52.2041C174.709 57.2164 174.86 61.0006 175.16 63.5568C175.461 66.063 175.962 67.8172 176.664 68.8197C177.366 69.772 178.393 70.2482 179.747 70.2482ZM232.582 32.2053C235.038 32.2053 236.993 32.8569 238.446 34.1601C239.95 35.4633 240.702 37.1925 240.702 39.3478C240.702 41.4028 240.025 43.1069 238.672 44.4602C237.368 45.8135 235.714 46.4902 233.71 46.4902C231.755 46.4902 230.126 45.8135 228.823 44.4602C227.57 43.1069 226.943 41.4028 226.943 39.3478C226.943 38.5959 226.968 38.0696 227.018 37.7689C226.918 37.4181 226.567 37.2426 225.966 37.2426C225.214 37.2426 224.512 38.0195 223.861 39.5733C223.259 41.077 222.733 42.8313 222.282 44.8362V69.1956C222.633 69.1956 223.109 69.2457 223.71 69.346C224.211 69.3961 224.612 69.5465 224.913 69.7971C225.214 69.9976 225.364 70.2231 225.364 70.4737C225.364 70.7243 225.164 70.9248 224.763 71.0752C224.362 71.2757 223.861 71.3509 223.259 71.3007C220.853 71.1002 218.121 71 215.064 71C212.057 71 209.325 71.1002 206.869 71.3007H206.568C206.067 71.3007 205.641 71.2256 205.29 71.0752C204.939 70.9248 204.764 70.7243 204.764 70.4737C204.764 70.2231 204.889 69.9976 205.14 69.7971C205.441 69.5465 205.816 69.3961 206.268 69.346L207.846 69.1956V53.1815L207.771 36.3404C207.12 36.3404 206.643 36.3154 206.343 36.2652C205.842 36.2151 205.441 36.0898 205.14 35.8893C204.839 35.6387 204.689 35.3881 204.689 35.1375C204.689 34.8869 204.864 34.6864 205.215 34.536C205.616 34.3355 206.117 34.2353 206.719 34.2353L208.974 34.3105C213.435 34.3105 217.32 33.7341 220.628 32.5813C220.728 32.5311 220.878 32.5061 221.079 32.5061C221.379 32.5061 221.63 32.7066 221.831 33.1075C222.081 33.4584 222.206 33.8844 222.206 34.3857V39.7237C223.159 37.819 224.462 36.0898 226.116 34.536C227.82 32.9822 229.975 32.2053 232.582 32.2053ZM244.209 44.761C244.209 40.7512 245.512 37.6687 248.118 35.5134C250.725 33.308 254.76 32.2053 260.223 32.2053C264.082 32.2053 267.516 32.7066 270.523 33.709C270.573 33.4584 270.698 33.2579 270.899 33.1075C271.15 32.9572 271.425 32.882 271.726 32.882C271.977 32.882 272.177 33.0574 272.327 33.4083C272.528 33.709 272.603 34.0849 272.553 34.536V34.6864C272.352 36.992 272.252 38.6962 272.252 39.7989C272.252 41.5531 272.352 43.132 272.553 44.5354V44.9113C272.553 45.4627 272.478 45.9138 272.327 46.2646C272.177 46.6155 271.977 46.7909 271.726 46.7909C271.375 46.7909 271.074 46.6907 270.824 46.4902C270.623 46.2396 270.498 45.9388 270.448 45.588L270.297 44.3099C270.247 44.2597 270.222 44.1344 270.222 43.934C270.222 42.8814 269.922 41.5531 269.32 39.9492C268.719 38.3453 267.716 36.9168 266.313 35.6638C264.959 34.4107 263.155 33.7842 260.9 33.7842C257.291 33.7842 255.486 35.363 255.486 38.5207C255.486 39.7738 255.837 40.8514 256.539 41.7536C257.241 42.6558 258.093 43.4327 259.095 44.0843C260.098 44.6858 261.551 45.4627 263.456 46.415C265.812 47.5678 267.716 48.6455 269.17 49.6479C270.673 50.6503 271.951 51.9786 273.004 53.6326C274.057 55.2867 274.583 57.3166 274.583 59.7225C274.583 63.632 273.255 66.6895 270.598 68.8949C267.942 71.1002 263.957 72.2029 258.644 72.2029C256.539 72.2029 254.734 72.0024 253.231 71.6015C251.727 71.2506 250.474 70.8998 249.472 70.5489C248.519 70.1479 247.843 69.8722 247.442 69.7219V70.173C247.392 70.6742 247.241 71.0752 246.991 71.3759C246.79 71.7268 246.539 71.9022 246.239 71.9022C245.938 71.9022 245.712 71.7017 245.562 71.3007C245.412 70.8998 245.362 70.3735 245.412 69.7219C245.562 68.118 245.637 66.5642 245.637 65.0605C245.637 63.3563 245.562 61.7274 245.412 60.1736V59.6473C245.412 59.1461 245.487 58.7451 245.637 58.4444C245.788 58.1436 245.988 57.9933 246.239 57.9933C246.539 57.9933 246.815 58.1436 247.066 58.4444C247.366 58.695 247.542 59.0458 247.592 59.4969C247.692 60.3991 247.742 61.0758 247.742 61.5269C247.742 62.5795 248.143 63.8325 248.945 65.2861C249.747 66.7396 250.9 67.9927 252.404 69.0452C253.907 70.0978 255.712 70.6241 257.817 70.6241C259.271 70.6241 260.423 70.173 261.275 69.2708C262.178 68.3185 262.629 67.1656 262.629 65.8123C262.629 64.0079 261.977 62.5293 260.674 61.3765C259.371 60.1736 257.366 58.8453 254.659 57.3918C252.404 56.1387 250.574 55.036 249.171 54.0837C247.818 53.1314 246.64 51.8783 245.637 50.3245C244.685 48.7708 244.209 46.9162 244.209 44.761ZM336.922 34.4608C336.922 34.7616 336.797 35.0372 336.546 35.2879C336.296 35.4883 335.97 35.6137 335.569 35.6638C335.068 35.764 334.617 35.8141 334.216 35.8141L326.848 58.1436L322.938 70.0978C322.838 70.4487 322.637 70.7494 322.337 71C322.036 71.2005 321.685 71.3007 321.284 71.3007H317.751C317.4 71.3007 317.049 71.2005 316.698 71C316.397 70.7995 316.197 70.5489 316.096 70.2482L307.375 48.069L300.082 70.0978C299.982 70.4487 299.757 70.7494 299.406 71C299.105 71.2005 298.779 71.3007 298.428 71.3007H294.895C294.544 71.3007 294.193 71.2005 293.842 71C293.541 70.7995 293.341 70.5489 293.241 70.2482L279.557 35.5886L278.505 35.5134C278.004 35.4633 277.603 35.338 277.302 35.1375C276.951 34.8869 276.776 34.6363 276.776 34.3857C276.776 34.135 276.976 33.9346 277.377 33.7842C277.778 33.6338 278.279 33.5837 278.881 33.6338C282.69 33.8343 285.522 33.9346 287.376 33.9346C289.231 33.9346 292.063 33.8343 295.872 33.6338H296.173C296.674 33.6338 297.1 33.709 297.451 33.8594C297.802 34.0097 297.977 34.2102 297.977 34.4608C297.977 34.7114 297.827 34.937 297.526 35.1375C297.225 35.338 296.85 35.4633 296.398 35.5134L294.82 35.6638L302.789 55.2867L306.172 45.0617L302.413 35.5886L301.586 35.5134C301.085 35.4633 300.659 35.338 300.308 35.1375C300.007 34.8869 299.857 34.6363 299.857 34.3857C299.857 34.135 300.057 33.9346 300.458 33.7842C300.859 33.6338 301.361 33.5837 301.962 33.6338C305.771 33.8343 308.603 33.9346 310.458 33.9346C312.312 33.9346 315.144 33.8343 318.953 33.6338H319.254C319.755 33.6338 320.181 33.709 320.532 33.8594C320.883 34.0097 321.059 34.2102 321.059 34.4608C321.059 34.7114 320.908 34.9621 320.608 35.2127C320.307 35.4132 319.906 35.5385 319.405 35.5886L317.675 35.739L325.645 55.2115L331.96 35.8141C331.609 35.8141 331.133 35.764 330.532 35.6638C330.081 35.6137 329.705 35.4883 329.404 35.2879C329.153 35.0372 329.028 34.7616 329.028 34.4608C329.028 34.0097 329.63 33.7842 330.832 33.7842H334.667H335.118C336.321 33.7842 336.922 34.0097 336.922 34.4608ZM348.679 29.9498C346.523 29.9498 344.694 29.2231 343.19 27.7695C341.737 26.316 341.01 24.5116 341.01 22.3563C341.01 20.2512 341.737 18.4969 343.19 17.0935C344.694 15.6399 346.523 14.9131 348.679 14.9131C350.784 14.9131 352.588 15.6399 354.092 17.0935C355.595 18.4969 356.347 20.2512 356.347 22.3563C356.347 24.4614 355.595 26.2658 354.092 27.7695C352.588 29.2231 350.784 29.9498 348.679 29.9498ZM357.926 69.346C358.377 69.3961 358.728 69.5465 358.979 69.7971C359.279 69.9976 359.43 70.2231 359.43 70.4737C359.43 70.7243 359.229 70.9248 358.828 71.0752C358.427 71.2757 357.926 71.3509 357.325 71.3007C353.716 71.1002 350.984 71 349.13 71C347.375 71 344.644 71.1002 340.935 71.3007H340.634C340.133 71.3007 339.707 71.2256 339.356 71.0752C339.005 70.9248 338.83 70.7243 338.83 70.4737C338.83 70.2231 338.955 69.9976 339.205 69.7971C339.506 69.5465 339.882 69.3961 340.333 69.346L341.912 69.2708V36.3404C341.26 36.3404 340.784 36.3154 340.484 36.2652C339.982 36.2151 339.581 36.0898 339.281 35.8893C338.98 35.6387 338.83 35.3881 338.83 35.1375C338.83 34.8869 339.005 34.6864 339.356 34.536C339.757 34.3355 340.258 34.2353 340.859 34.2353L343.115 34.3105C347.576 34.3105 351.46 33.7341 354.768 32.5813C354.869 32.5311 355.019 32.5061 355.22 32.5061C355.52 32.5061 355.771 32.7066 355.971 33.1075C356.222 33.4584 356.347 33.8844 356.347 34.3857V69.2708L357.926 69.346ZM406.402 69.1956C406.753 69.1956 407.28 69.2457 407.981 69.346C408.482 69.3961 408.883 69.5465 409.184 69.7971C409.535 69.9976 409.71 70.2231 409.71 70.4737C409.71 70.7243 409.51 70.9248 409.109 71.0752C408.708 71.2757 408.207 71.3509 407.605 71.3007C403.997 71.1002 401.265 71 399.41 71C397.656 71 394.924 71.1002 391.215 71.3007H390.915C390.413 71.3007 389.987 71.2256 389.636 71.0752C389.286 70.9248 389.11 70.7243 389.11 70.4737C389.11 70.2231 389.236 69.9976 389.486 69.7971C389.787 69.5465 390.138 69.3961 390.539 69.346L391.967 69.2708V36.3404H380.464L380.539 69.1956C380.94 69.1956 381.492 69.2457 382.193 69.346C382.695 69.3961 383.096 69.5465 383.396 69.7971C383.747 69.9976 383.923 70.2231 383.923 70.4737C383.923 70.7243 383.722 70.9248 383.321 71.0752C382.92 71.2757 382.419 71.3509 381.817 71.3007C378.209 71.1002 375.477 71 373.622 71C371.868 71 369.136 71.1002 365.427 71.3007H365.127C364.625 71.3007 364.199 71.2256 363.849 71.0752C363.498 70.9248 363.322 70.7243 363.322 70.4737C363.322 70.2231 363.448 69.9976 363.698 69.7971C363.999 69.5465 364.35 69.3961 364.751 69.346L366.104 69.2708L366.029 36.3404V36.2652L365.127 36.1901C364.625 36.1901 364.199 36.0898 363.849 35.8893C363.498 35.6387 363.322 35.3881 363.322 35.1375C363.322 34.8869 363.448 34.6864 363.698 34.536C363.949 34.3355 364.275 34.2353 364.676 34.2353L366.104 34.3105C366.305 29.4486 367.257 25.6644 368.961 22.9578C370.715 20.201 373.146 18.2713 376.254 17.1686C379.412 16.066 383.421 15.5146 388.283 15.5146C392.544 15.5146 396.428 16.2163 399.937 17.6197C403.495 18.973 405.275 21.404 405.275 24.9125C405.275 26.7671 404.623 28.3209 403.32 29.5739C402.067 30.827 400.538 31.4535 398.734 31.4535C396.879 31.4535 395.3 30.827 393.997 29.5739C392.744 28.3209 392.118 26.7671 392.118 24.9125C392.118 23.9602 392.318 23.0831 392.719 22.2811C393.12 21.429 393.671 20.7023 394.373 20.1008C393.571 18.3465 391.666 17.4694 388.659 17.4694C385.802 17.4694 383.722 18.5721 382.419 20.7774C381.116 22.9327 380.464 26.2909 380.464 30.852V34.4608H388.885C397.506 34.4608 402.769 33.8844 404.673 32.7316C404.974 32.5813 405.25 32.5061 405.5 32.5061C405.751 32.5061 405.951 32.6815 406.102 33.0324C406.302 33.3832 406.402 33.8343 406.402 34.3857V69.1956ZM441.885 62.0532C442.035 62.0532 441.935 62.4792 441.584 63.3313C441.233 64.1834 440.757 64.9603 440.156 65.662C438.602 67.5666 436.848 69.0954 434.893 70.2482C432.988 71.3509 430.933 71.9022 428.728 71.9022C425.119 71.9022 422.337 70.7744 420.382 68.5189C418.428 66.2634 417.45 62.9804 417.45 58.6699V36.3404L415.12 36.1901C414.618 36.1399 414.192 36.0146 413.841 35.8141C413.491 35.6137 413.315 35.3881 413.315 35.1375C413.315 34.8869 413.516 34.6613 413.917 34.4608C414.318 34.2603 414.794 34.1852 415.345 34.2353L417.45 34.3857V28.371C417.45 27.8698 417.626 27.4437 417.977 27.0929C418.378 26.742 418.854 26.5415 419.405 26.4914C422.112 26.2909 424.317 25.7646 426.021 24.9125C427.775 24.0605 429.104 23.1833 430.006 22.2811C430.357 21.9303 430.733 21.7548 431.134 21.7548C431.334 21.7548 431.51 21.9553 431.66 22.3563C431.81 22.7072 431.886 23.1332 431.886 23.6344V34.4608C433.79 34.4608 435.87 34.3857 438.126 34.2353C438.677 34.2353 439.153 34.3355 439.554 34.536C439.955 34.6864 440.156 34.8869 440.156 35.1375C440.156 35.3881 439.98 35.6387 439.629 35.8893C439.279 36.0898 438.853 36.2151 438.351 36.2652L431.886 36.4908V62.3539C431.886 63.6571 432.161 64.6846 432.713 65.4364C433.314 66.1381 434.116 66.489 435.118 66.489C436.823 66.489 438.702 65.2359 440.757 62.7298C441.058 62.2787 441.434 62.0532 441.885 62.0532ZM478.527 34.4608C478.527 34.7616 478.402 35.0372 478.151 35.2879C477.9 35.4883 477.575 35.6137 477.174 35.6638C476.672 35.764 476.221 35.8141 475.82 35.8141L468.452 58.1436L464.167 71.3007C463.064 74.3582 461.911 76.739 460.708 78.4432C459.505 80.1473 458.202 81.3252 456.799 81.9768C455.395 82.6284 453.716 82.9542 451.762 82.9542C450.208 82.9542 448.879 82.4279 447.777 81.3753C446.674 80.3729 446.123 79.1198 446.123 77.6161C446.123 76.1626 446.624 74.9346 447.626 73.9322C448.629 72.9297 449.882 72.4285 451.386 72.4285C452.689 72.4285 453.817 72.8044 454.769 73.5562C455.721 74.3081 456.323 75.3105 456.573 76.5636C456.774 77.0648 457.275 77.3154 458.077 77.3154C459.029 77.3154 459.806 76.9144 460.408 76.1125C461.059 75.3105 461.385 74.2078 461.385 72.8044C461.385 72.0526 461.31 71.5513 461.159 71.3007H459.355C459.004 71.3007 458.653 71.2005 458.302 71C458.002 70.7995 457.801 70.5489 457.701 70.2482L444.018 35.5886L443.191 35.5134C442.689 35.4633 442.288 35.338 441.988 35.1375C441.637 34.8869 441.461 34.6363 441.461 34.3857C441.461 34.135 441.662 33.9346 442.063 33.7842C442.464 33.6338 442.965 33.5837 443.567 33.6338C447.376 33.8343 450.208 33.9346 452.062 33.9346C453.917 33.9346 456.749 33.8343 460.558 33.6338H460.859C461.36 33.6338 461.786 33.709 462.137 33.8594C462.488 34.0097 462.663 34.2102 462.663 34.4608C462.663 34.7114 462.513 34.9621 462.212 35.2127C461.911 35.4132 461.51 35.5385 461.009 35.5886L459.28 35.739L467.249 55.2115L473.565 35.8141C473.214 35.8141 472.738 35.764 472.136 35.6638C471.685 35.6137 471.309 35.4883 471.008 35.2879C470.758 35.0372 470.633 34.7616 470.633 34.4608C470.633 34.0097 471.234 33.7842 472.437 33.7842H476.271H476.722C477.925 33.7842 478.527 34.0097 478.527 34.4608ZM490.536 71.9022C488.631 71.9022 487.027 71.2506 485.724 69.9474C484.421 68.6443 483.769 67.0654 483.769 65.2109C483.769 63.3563 484.421 61.8026 485.724 60.5495C487.027 59.2463 488.631 58.5947 490.536 58.5947C492.44 58.5947 494.044 59.2463 495.347 60.5495C496.701 61.8026 497.377 63.3563 497.377 65.2109C497.377 67.0654 496.701 68.6443 495.347 69.9474C494.044 71.2506 492.44 71.9022 490.536 71.9022Z" fill="white"/>
</g>
<defs>
<clipPath id="clip0_289_7">
<rect width="503" height="86" fill="white"/>
</clipPath>
</defs>
</svg>
